<?xml version="1.0" encoding="utf-8"?>
<!-- Generator: Adobe Illustrator 21.0.0, SVG Export Plug-In . SVG Version: 6.00 Build 0)  -->
<svg version="1.1" id="Capa_1" xmlns="http://www.w3.org/2000/svg" xmlns:xlink="http://www.w3.org/1999/xlink" x="0px" y="0px"
	 viewBox="0 0 512 512" style="enable-background:new 0 0 512 512;" xml:space="preserve">
<style type="text/css">
	.st0{stroke:#718096;stroke-width:10;stroke-miterlimit:10;}
</style>
<g>
	<g>
		<g>
			<g>
				<path class="st0" d="M42.2,300.6c-0.3-0.7-0.7-1.4-1.3-1.9h-4.2l-0.8-2.7c-1.1-0.3-2.2-0.5-3.4-0.5c0.1,0.3,0.3,0.7,0.4,1
					l0.9,3.2c1.3,0.3,2.3,1.1,2.7,2v0l0,0l0,0h6.3L42.2,300.6z M474.6,296.5l-0.6,2.2h-2.9c-0.6,0.6-1,1.2-1.3,1.9l-0.5,1.1h6.2
					l0-0.1c0.2-0.5,0.6-0.9,1.1-1.3l1.1-3.9c0.1-0.3,0.2-0.6,0.3-0.9C476.8,295.8,475.6,296,474.6,296.5z"/>
				<path class="st0" d="M480,267.2H32c-17.6,0-32,9.5-32,21.2c0,7.9,6.6,14.8,16.3,18.5c1.1,0.4,2.3,0.8,3.5,1.1l-0.6-2.1l-0.1-0.3
					c-1.3-0.4-2.5-0.9-3.6-1.4C8,300.8,3,295,3,288.4c0-10.6,13-19.2,29-19.2h448c16,0,29,8.6,29,19.2c0,7-5.7,13.1-14.1,16.5
					c-1.1,0.5-2.3,0.9-3.6,1.2l-0.7,2.3c1.2-0.3,2.4-0.6,3.5-1c10.5-3.5,17.8-10.7,17.8-19C512,276.7,497.6,267.2,480,267.2z"/>
			</g>
		</g>
	</g>
	<g>
		<g>
			<g>
				<path class="st0" d="M390.4,456.8l-4.8-9.7c-1.9-3.9-5.8-6.1-9.8-6.1c-1.6,0-3.3,0.4-4.9,1.1c-5.4,2.7-7.6,9.2-5,14.6h3.4
					l-0.6-1.3c-1.9-3.9-0.3-8.6,3.5-10.6c1.1-0.5,2.3-0.8,3.5-0.8c3,0,5.7,1.7,7.1,4.4l4.1,8.3l1.5,3.1h3.4L390.4,456.8z
					 M139.7,442.2c-1.6-0.8-3.2-1.1-4.9-1.1c-4,0-7.9,2.2-9.8,6l-4.8,9.7l-1.5,3.1h3.4l5.7-11.4c1.3-2.7,4.1-4.3,7.1-4.3
					c1.2,0,2.4,0.3,3.5,0.8c3.9,1.9,5.4,6.7,3.5,10.6l-0.6,1.3h3.4C147.3,451.4,145.1,444.9,139.7,442.2z"/>
				<path class="st0" d="M488.3,288.2c-1-0.3-2.1-0.4-3-0.4c-4.8,0-9.1,3.1-10.5,8l-0.2,0.8l-0.6,2.2H36.7l-0.8-2.7l-0.1-0.3
					c-1.4-4.8-5.7-7.9-10.5-7.9c-1,0-2,0.1-3,0.4c-5.7,1.6-9,7.4-7.6,13.1c0,0.1,0.1,0.3,0.1,0.4l0.7,2.5l0.2,0.7v0l0.5,1.9l0.5,1.6
					L45,407.4c9.2,32.2,38.7,54.9,72.1,55.6c0.5,0,1,0,1.6,0h1.9l3.1-6.2h-3.4l-1.5,3.1c-32.7,0-61.7-22-70.7-53.4l-27.8-97.3
					l-0.3-1.2l-0.6-2.1l-0.1-0.3l-0.9-3.1l-0.5-1.7c-0.6-2-0.3-4.1,0.7-6c1-1.8,2.7-3.2,4.7-3.7c0.7-0.2,1.4-0.3,2.2-0.3
					c3.2,0,6,1.8,7.2,4.7c0.1,0.3,0.3,0.7,0.4,1l0.9,3.2l0.6,2.1h441.9l0.4-1.4l1.1-3.9c0.1-0.3,0.2-0.6,0.3-0.9
					c1.2-2.9,4-4.8,7.2-4.8c0.7,0,1.5,0.1,2.2,0.3c2,0.6,3.7,1.9,4.7,3.8c1,1.8,1.3,4,0.7,6l-0.5,1.7l-1,3.4l-0.1,0.2l-0.7,2.3
					l-0.2,0.8l-27.8,97.3c-9,31.4-38.1,53.4-70.7,53.4l-1.5-3.1H387l3.1,6.2h1.9c0.5,0,1,0,1.6,0c33.4-0.7,62.9-23.3,72.1-55.6
					l28.2-98.9l0.3-1.1l0.7-2.4l0-0.1l0.9-3.2c0-0.1,0.1-0.3,0.1-0.4C497.3,295.6,494,289.8,488.3,288.2z M370.9,459.9H139.7
					l-1.5,3.1h234.3L370.9,459.9z"/>
			</g>
		</g>
	</g>
	<g>
		<g>
			<g>
				<path class="st0" d="M139.7,442.2c-1.6-0.8-3.2-1.1-4.9-1.1c-4,0-7.9,2.2-9.8,6l-4.8,9.7l-3.1,6.1l-14,28
					c-2.7,5.4-0.5,12,4.9,14.7c1.6,0.8,3.3,1.2,4.9,1.2c4,0,7.9-2.2,9.8-6.1l21.9-43.8c0,0,0-0.1,0.1-0.1
					C147.3,451.4,145.1,444.9,139.7,442.2z M138.2,463L120,499.3c-1.3,2.7-4,4.4-7,4.4c-1.2,0-2.4-0.3-3.5-0.8
					c-3.9-1.9-5.4-6.7-3.5-10.6l14.7-29.3l7.2-14.5c1.3-2.7,4.1-4.3,7.1-4.3c1.2,0,2.4,0.3,3.5,0.8c3.9,1.9,5.4,6.7,3.5,10.6
					L138.2,463z"/>
			</g>
		</g>
	</g>
	<g>
		<g>
			<g>
				<path class="st0" d="M407.5,490.9l-14-28l-1.5-3.1l-1.5-3.1l-4.8-9.7c-1.9-3.9-5.8-6.1-9.8-6.1c-1.6,0-3.3,0.4-4.9,1.1
					c-5.4,2.7-7.6,9.2-5,14.6c0,0,0,0.1,0.1,0.1l3,6l18.9,37.8c1.9,3.8,5.8,6,9.8,6c1.6,0,3.3-0.4,4.9-1.1
					C408,502.9,410.2,496.4,407.5,490.9z M401.2,502.9c-1.1,0.5-2.3,0.8-3.5,0.8c-3,0-5.7-1.7-7-4.3L372.5,463l-3.1-6.2l-0.6-1.3
					c-1.9-3.9-0.3-8.6,3.5-10.6c1.1-0.5,2.3-0.8,3.5-0.8c3,0,5.7,1.7,7.1,4.4l4.1,8.3l3.1,6.2l14.7,29.4
					C406.7,496.2,405.1,500.9,401.2,502.9z"/>
			</g>
		</g>
	</g>
	<g>
		<g>
			<g>
				<path class="st0" d="M459.9,50.6c-7.4-7.3-17.1-11.4-27.5-11.4c-10.3,0-20.1,4-27.4,11.4l-27,27l-3.7,3.7l1.5,1.5l0.6,0.6
					L378,85l5.2,5.2l2.2,2.2l3.7-3.7l27-27c4.3-4.4,10.2-6.8,16.4-6.8c12.7,0,23,10.3,23,23v191.2h15.8V78
					C471.3,67.6,467.3,57.9,459.9,50.6z M468.2,267.2h-9.6V78c0-14.4-11.7-26.1-26.1-26.1c-7.1,0-13.7,2.7-18.6,7.7l-27,27l-1.5,1.5
					l-6.8-6.8l1.5-1.5l27-27c6.7-6.7,15.7-10.5,25.2-10.5c9.6,0,18.6,3.7,25.3,10.5c6.7,6.7,10.5,15.7,10.5,25.2V267.2z"/>
				<path class="st0" d="M432.5,51.9c-7.1,0-13.7,2.7-18.6,7.7l-27,27l-3.7,3.7l2.2,2.2l3.7-3.7l27-27c4.3-4.4,10.2-6.8,16.4-6.8
					c12.7,0,23,10.3,23,23v191.2h3.1V78C458.6,63.6,446.9,51.9,432.5,51.9z M459.9,50.6c-7.4-7.3-17.1-11.4-27.5-11.4
					c-10.3,0-20.1,4-27.4,11.4l-27,27l-3.7,3.7l1.5,1.5l0.6,0.6L378,82l0.6-0.6l1.5-1.5l27-27c6.7-6.7,15.7-10.5,25.2-10.5
					c9.6,0,18.6,3.7,25.3,10.5c6.7,6.7,10.5,15.7,10.5,25.2v191.2h3.1V78C471.3,67.6,467.3,57.9,459.9,50.6z"/>
			</g>
		</g>
	</g>
	<g>
		<g>
			<g>
				<path class="st0" d="M394.5,97.2l-18.7-18.7l-3.2-3.2c-2.1-2.1-4.8-3.2-7.7-3.2c-0.6,0-1.2,0.1-1.8,0.2l-54.8,9
					c-4,0.7-7.3,3.5-8.6,7.4c-1.3,3.9-0.3,8.2,2.5,11.1l65.7,67.7c2.1,2.2,4.9,3.3,7.8,3.3c1,0,2.1-0.2,3.1-0.5
					c3.9-1.1,6.9-4.4,7.6-8.3l10.9-54.8C398.2,103.5,397.1,99.8,394.5,97.2z M394.4,106.5l-10.9,54.8c-0.6,2.9-2.7,5.2-5.5,6
					c-0.7,0.2-1.5,0.3-2.2,0.3c-2.1,0-4.2-0.9-5.6-2.4l-65.7-67.7c-2-2.1-2.8-5.2-1.8-7.9c0.9-2.8,3.3-4.8,6.2-5.3l54.8-9
					c0.5-0.1,0.9-0.1,1.3-0.1c2.1,0,4,0.8,5.5,2.3l3.2,3.2l0.6,0.6l1.5,1.5l0.6,0.6L378,85l5.2,5.2l9.1,9.1
					C394.2,101.2,395,103.9,394.4,106.5z"/>
			</g>
		</g>
	</g>
</g>
</svg>
