<?xml version="1.0" encoding="utf-8"?>
<!-- Generator: Adobe Illustrator 21.0.0, SVG Export Plug-In . SVG Version: 6.00 Build 0)  -->
<svg fill="#bee3f8" version="1.1" id="Layer_1" xmlns="http://www.w3.org/2000/svg" xmlns:xlink="http://www.w3.org/1999/xlink" x="0px" y="0px"
	 viewBox="0 0 20 20" style="enable-background:new 0 0 20 20;" xml:space="preserve">
<path d="M18,0H2C0.9,0,0,0.9,0,2v2h20V2C20,0.9,19.1,0,18,0z M18.8,2.9H1.2v-1c0-0.5,0.8-1,1.8-1h14.1c1,0,1.8,0.4,1.8,1V2.9z M7,7
	v2h6V7H7z M7,7v2h6V7H7z M0,5v13c0,1.1,1,2,2.2,2h15.6c1.2,0,2.2-0.9,2.2-2V5H0z M18.6,17.1c0,0.9-0.9,1.7-1.9,1.7H3.3
	c-1.1,0-1.9-0.8-1.9-1.7V6.3h17.2V17.1z M13.3,7H6.7v2h6.7V7z"/>
</svg>
