<?xml version="1.0" encoding="utf-8"?>
<!-- Generator: Adobe Illustrator 21.0.0, SVG Export Plug-In . SVG Version: 6.00 Build 0)  -->
<svg version="1.1" id="Layer_1" xmlns="http://www.w3.org/2000/svg" xmlns:xlink="http://www.w3.org/1999/xlink" x="0px" y="0px"
	 viewBox="0 0 500 500" style="enable-background:new 0 0 500 500;" xml:space="preserve">
<style type="text/css">
	.st0{fill:url(#SVGID_1_);}
	.st1{fill:#F7D070;}
	.st2{fill:#FFFFFF;stroke:#A58430;stroke-width:14;stroke-miterlimit:10;}
	.st3{fill:#7C5E10;}
</style>
<radialGradient id="SVGID_1_" cx="246.9" cy="828" r="241" gradientTransform="matrix(1 0 0 1 0 -578)" gradientUnits="userSpaceOnUse">
	<stop  offset="0.8449" style="stop-color:#F7D070"/>
	<stop  offset="0.9178" style="stop-color:#F7D172;stop-opacity:0.5039"/>
	<stop  offset="0.944" style="stop-color:#F7D379;stop-opacity:0.3252"/>
	<stop  offset="0.9627" style="stop-color:#F7D884;stop-opacity:0.1979"/>
	<stop  offset="0.9777" style="stop-color:#F8DE95;stop-opacity:9.560859e-02"/>
	<stop  offset="0.9864" style="stop-color:#F8E3A3;stop-opacity:3.650647e-02"/>
</radialGradient>
<circle class="st0" cx="246.9" cy="250" r="241"/>
<circle class="st1" cx="246.9" cy="250" r="220"/>
<circle class="st1" cx="246.9" cy="250" r="136.3"/>
<circle class="st2" cx="246.9" cy="250" r="102.5"/>
<g>
	<path class="st3" d="M253.1,280.3h-12.5c-1.3,0-2.2-0.9-2.2-2.2l-3.1-89.5c0-1.3,0.9-2.2,2.2-2.2h18.7c1.3,0,2.2,0.9,2.2,2.2
		l-3.1,89.5C255.4,279.4,254,280.3,253.1,280.3z"/>
	<path class="st3" d="M254,314.1h-14.3c-2.7,0-4.5-2.2-4.5-4.5v-14.3c0-2.7,2.2-4.5,4.5-4.5H254c2.7,0,4.5,2.2,4.5,4.5v14.3
		C258.5,311.9,256.3,314.1,254,314.1z"/>
</g>
</svg>
