<?xml version="1.0" encoding="utf-8"?>
<!-- Generator: Adobe Illustrator 21.0.0, SVG Export Plug-In . SVG Version: 6.00 Build 0)  -->
<svg fill="#4299e1" version="1.1" id="Capa_1" xmlns="http://www.w3.org/2000/svg" xmlns:xlink="http://www.w3.org/1999/xlink" x="0px" y="0px"
	 viewBox="0 0 760.8 760.8" style="enable-background:new 0 0 760.8 760.8;" xml:space="preserve">
<g>
	<g>
		<path d="M559.6,360.7h-51.7V309c0-6.6-5.3-11.9-11.9-11.9s-11.9,5.3-11.9,11.9v51.7h-51.7c-6.6,0-11.9,5.3-11.9,11.9
			s5.3,11.9,11.9,11.9h51.7v51.7c0,6.6,5.3,11.9,11.9,11.9s11.9-5.3,11.9-11.9v-51.7h51.7c6.6,0,11.9-5.3,11.9-11.9
			S566.2,360.7,559.6,360.7z"/>
	</g>
</g>
<g>
	<g>
		<path d="M325.1,158.5c-52.6,0-95.3,42.8-95.3,95.3c0,52.6,42.8,95.3,95.3,95.3c52.6,0,95.3-42.8,95.3-95.3
			S377.7,158.5,325.1,158.5z M325.1,319.2c-36,0-65.3-29.3-65.3-65.3c0-36,29.3-65.3,65.3-65.3c36,0,65.3,29.3,65.3,65.3
			S361.2,319.2,325.1,319.2z"/>
	</g>
</g>
<path d="M500.6,587.1c0,2.7-0.1,5.3-0.2,8c-0.2,4-3.5,7.2-7.5,7.2H478c-4.3,0-7.7-3.6-7.5-7.9c0.1-2.4,0.2-4.8,0.2-7.2
	c0-5-0.3-10-0.8-14.8c-7.4-73.4-69.4-130.7-144.8-130.7c-75.3,0-137.3,57.3-144.8,130.7c-0.5,4.9-0.8,9.8-0.8,14.8
	c0,2.4,0.1,4.8,0.2,7.2c0.2,4.3-3.2,7.9-7.5,7.9h-14.9c-4,0-7.4-3.2-7.5-7.2c-0.1-2.6-0.2-5.3-0.2-8c0-5,0.2-9.9,0.6-14.8
	c7.5-90,83-160.7,174.9-160.7S492.5,482.3,500,572.3C500.4,577.1,500.6,582.1,500.6,587.1z"/>
<g>
	<path d="M349.9,742.5c-45.8,0-90.3-9-132.2-26.7c-40.4-17.1-76.8-41.6-107.9-72.8S54.1,575.6,37,535.2
		C19.3,493.3,10.3,448.8,10.3,403c0-45.8,9-90.3,26.7-132.2c17.1-40.4,41.6-76.8,72.8-107.9c31.2-31.2,67.5-55.7,107.9-72.8
		c41.9-17.7,86.3-26.7,132.2-26.7c45.8,0,90.3,9,132.2,26.7c40.4,17.1,76.8,41.6,107.9,72.8c31.2,31.2,55.7,67.5,72.8,107.9
		c17.7,41.9,26.7,86.3,26.7,132.2c0,45.8-9,90.3-26.7,132.2c-17.1,40.4-41.6,76.8-72.8,107.9s-67.5,55.7-107.9,72.8
		C440.2,733.6,395.7,742.5,349.9,742.5z M349.9,90.4C177.5,90.4,37.3,230.6,37.3,403c0,172.4,140.2,312.6,312.6,312.6
		c172.4,0,312.6-140.2,312.6-312.6C662.4,230.6,522.2,90.4,349.9,90.4z"/>
</g>
</svg>
