<?xml version="1.0" encoding="utf-8"?>
<!-- Generator: Adobe Illustrator 21.0.0, SVG Export Plug-In . SVG Version: 6.00 Build 0)  -->
<svg fill="#bee3f8" version="1.1" id="Layer_1" xmlns="http://www.w3.org/2000/svg" xmlns:xlink="http://www.w3.org/1999/xlink" x="0px" y="0px"
	 viewBox="0 0 20 20" style="enable-background:new 0 0 20 20;" xml:space="preserve">
<path d="M18,0H2C0.9,0,0,0.9,0,2v16c0,1.1,0.9,2,2,2h16c1.1,0,2-0.9,2-2V2C20,0.9,19.1,0,18,0z M18,17c0,0.5-0.4,1-1,1H3
	c-0.5,0-1-0.4-1-1v-3.6h2.3c0.2,0,0.3,0.1,0.4,0.3c0,0,0,0,0,0l0.9,1.5c0,0,0,0,0,0l0.1,0.1v0c0.1,0.2,0.3,0.3,0.6,0.3H14
	c0.2,0,0.3-0.1,0.4-0.3c0,0,0-0.1,0.1-0.1l0.9-1.6c0.1-0.1,0.2-0.3,0.4-0.3H18V17z M18,11.3h-3.3c-0.2,0-0.4,0.1-0.6,0.3
	c0,0,0,0.1-0.1,0.1l-0.9,1.6c-0.1,0.1-0.2,0.3-0.4,0.3H7.2c-0.2,0-0.3-0.1-0.4-0.3l-0.9-1.6c0,0,0-0.1-0.1-0.1
	c-0.1-0.1-0.2-0.2-0.4-0.3H2V3c0-0.5,0.4-1,1-1h14c0.5,0,1,0.4,1,1V11.3z"/>
</svg>
